# xmcd
#
# Track frame offsets:
#	150
#	15525
#	26069
#
# Disc length: 502 seconds
#
# Revision: 0
# Processed by: cddbd v1.5.2PL0 Copyright (c) Steve Scherf et al.
# Submitted via: audiograbber 1.83.01
#
DISCID=1901f403
DTITLE=Poul Henning - Altid i mit sind
DYEAR=2007
DGENRE=Dansktop
TTITLE0=Altid i mit sind (2007)
TTITLE1=Tænk på mig (2007)
TTITLE2=Rosen (2007)
EXTD=
EXTT0=
EXTT1=
EXTT2=
PLAYORDER=
